<svg width="70" height="70" viewBox="0 0 70 70" fill="none" xmlns="http://www.w3.org/2000/svg">
<g clip-path="url(#clip0)">
<path d="M35.0001 15.5325L47.4327 27.9596C47.873 28.3997 48.47 28.6469 49.0925 28.6469H66.2124V60.688H3.7876V28.6471H20.9075C21.53 28.6471 22.127 28.3999 22.5673 27.9598L35.0001 15.5325Z" fill="#EAB14D"/>
<path d="M49.0926 28.6471C48.4701 28.6471 47.8731 28.3999 47.4329 27.9598L35.0001 15.5325L22.5674 27.9596C22.1272 28.3997 21.5301 28.6469 20.9076 28.6469H3.7876V31.6854H20.913C22.3518 31.6854 23.7045 31.1251 24.7216 30.1078L34.0233 20.806C34.5627 20.2666 35.4372 20.2666 35.9765 20.806L45.2782 30.1076C46.2954 31.1251 47.6482 31.6854 49.0869 31.6854H61.7928C62.5556 31.6854 63.174 32.3037 63.174 33.0665V60.688H66.2124V28.6471H49.0926Z" fill="#E7A52E"/>
<path d="M33.3399 10.5519C34.2568 9.63511 35.7433 9.63511 36.6601 10.5519L50.0597 23.9513H66.2126L59.6997 6.41661C59.2978 5.33435 58.265 4.61617 57.1104 4.61617H12.8898C11.7352 4.61617 10.7024 5.33421 10.3005 6.41661L3.7876 23.9513H19.9405L33.3399 10.5519Z" fill="#5E54AC"/>
<path d="M59.6996 6.41661C59.2977 5.33435 58.2649 4.61617 57.1103 4.61617H52.967C54.1216 4.61617 55.1544 5.33421 55.5564 6.41661L62.0692 23.9513H66.2125L59.6996 6.41661Z" fill="#524798"/>
<path d="M68.9746 27.2659C68.9746 28.0287 68.3563 28.6471 67.5935 28.6471H49.0871C48.4644 28.6471 47.8672 28.3998 47.4269 27.9594L35 15.5325L22.5731 27.9594C22.1329 28.3996 21.5357 28.6471 20.9129 28.6471H2.4064C1.64365 28.6471 1.02527 28.0287 1.02527 27.2659V25.3325C1.02527 24.5697 1.64365 23.9513 2.4064 23.9513H19.9405L33.34 10.5519C34.2568 9.63511 35.7434 9.63511 36.6602 10.5519L50.0597 23.9513H67.5937C68.3564 23.9513 68.9748 24.5697 68.9748 25.3325V27.2659H68.9746Z" fill="#E7ECF6"/>
<path d="M67.5937 23.9513H62.8979C63.6607 23.9513 64.2791 24.5697 64.2791 25.3325V27.2659C64.2791 28.0287 63.6607 28.6471 62.8979 28.6471H67.5937C68.3565 28.6471 68.9748 28.0287 68.9748 27.2659V25.3325C68.9747 24.5697 68.3565 23.9513 67.5937 23.9513Z" fill="#D8E2F1"/>
<path d="M47.844 38.8671H61.6548V52.6778H47.844V38.8671Z" fill="#9DC6FB"/>
<path d="M47.844 52.6779H61.6548V57.0973H47.844V52.6779Z" fill="#AA8080"/>
<path d="M8.34497 38.8671H22.1558V52.6778H8.34497V38.8671Z" fill="#9DC6FB"/>
<path d="M8.34497 52.6779H22.1558V57.0973H8.34497V52.6779Z" fill="#AA8080"/>
<path d="M27.266 38.8671H42.7341V60.6882H27.266V38.8671Z" fill="#8B5E5E"/>
<path d="M31.6853 43.2865H38.3145V47.7059H31.6853V43.2865Z" fill="#9DC6FB"/>
<path d="M35 33.7569C37.4408 33.7569 39.4194 31.7783 39.4194 29.3375C39.4194 26.8967 37.4408 24.9181 35 24.9181C32.5592 24.9181 30.5806 26.8967 30.5806 29.3375C30.5806 31.7783 32.5592 33.7569 35 33.7569Z" fill="#9DC6FB"/>
<path d="M1.02539 60.688H68.9748V65.3838H1.02539V60.688Z" fill="#5E54AC"/>
<path d="M64.2789 60.688H68.9747V65.3838H64.2789V60.688Z" fill="#524798"/>
<path d="M67.5935 22.926H66.9253L60.6607 6.05964C60.1122 4.58294 58.6854 3.59077 57.1102 3.59077H12.8897C11.3146 3.59077 9.88764 4.58294 9.33912 6.05964L3.07467 22.926H2.40652C1.07953 22.926 0 24.0055 0 25.3325V27.266C0 28.5929 1.07953 29.6725 2.40652 29.6725H2.76227V52.1477C2.76227 52.714 3.22123 53.1731 3.78766 53.1731C4.35408 53.1731 4.81305 52.714 4.81305 52.1477V29.6725H20.913C21.814 29.6725 22.6611 29.3217 23.2984 28.6844L35 16.9825L46.7019 28.6844C47.339 29.3215 48.1861 29.6723 49.0871 29.6723H65.1871V32.3909C65.1871 32.9571 65.6461 33.4163 66.2125 33.4163C66.7789 33.4163 67.2379 32.9571 67.2379 32.3909V29.6723H67.5936C68.9205 29.6723 70.0001 28.5928 70.0001 27.2658V25.3323C70 24.0055 68.9205 22.926 67.5935 22.926ZM11.2615 6.77359C11.5131 6.09642 12.1674 5.64156 12.8897 5.64156H57.1102C57.8324 5.64156 58.4868 6.09656 58.7383 6.77359L64.7377 22.926H50.4844L37.3852 9.82693C36.7481 9.18982 35.9011 8.83886 35 8.83886C34.0989 8.83886 33.2519 9.18968 32.6148 9.82693L19.5156 22.926H5.26217L11.2615 6.77359ZM67.9492 27.266C67.9492 27.4621 67.7897 27.6217 67.5935 27.6217H49.0871C48.7338 27.6217 48.4016 27.4842 48.1519 27.2344L35.725 14.8075C35.5327 14.6151 35.2719 14.5071 34.9999 14.5071C34.7278 14.5071 34.4672 14.6151 34.2747 14.8075L21.8479 27.2344C21.5981 27.4842 21.2659 27.6217 20.9126 27.6217H2.40652C2.21033 27.6217 2.05078 27.4621 2.05078 27.266V25.3325C2.05078 25.1363 2.21033 24.9767 2.40652 24.9767H19.9404C20.2124 24.9767 20.4731 24.8687 20.6656 24.6764L34.0651 11.277C34.3148 11.0272 34.6469 10.8896 35.0001 10.8896C35.3534 10.8896 35.6855 11.0272 35.9352 11.277L49.3347 24.6764C49.5271 24.8687 49.7878 24.9767 50.0598 24.9767H67.5938C67.7899 24.9767 67.9495 25.1363 67.9495 25.3325V27.266H67.9492Z" fill="black"/>
<path d="M61.655 58.1227C62.2214 58.1227 62.6803 57.6636 62.6803 57.0973V38.8671C62.6803 38.3008 62.2214 37.8417 61.655 37.8417H47.844C47.2776 37.8417 46.8186 38.3008 46.8186 38.8671V57.0973C46.8186 57.6636 47.2776 58.1227 47.844 58.1227H61.655ZM60.6296 51.6525H55.7748V46.7979H60.6296V51.6525ZM53.724 51.6525H48.8694V46.7979H53.724V51.6525ZM60.6296 56.0719H48.8694V53.7032H60.6296V56.0719ZM60.6296 44.7469H55.7748V39.8923H60.6296V44.7469ZM53.724 39.8925V44.7471H48.8694V39.8925H53.724Z" fill="black"/>
<path d="M22.1559 58.1227C22.7223 58.1227 23.1813 57.6636 23.1813 57.0973V38.8671C23.1813 38.3008 22.7223 37.8417 22.1559 37.8417H8.34497C7.77854 37.8417 7.31958 38.3008 7.31958 38.8671V57.0973C7.31958 57.6636 7.77854 58.1227 8.34497 58.1227H22.1559ZM21.1305 51.6525H16.2759V46.7979H21.1305V51.6525ZM14.2251 51.6525H9.37036V46.7979H14.2251V51.6525ZM21.1305 56.0719H9.37036V53.7032H21.1305V56.0719ZM21.1305 44.7469H16.2759V39.8923H21.1305V44.7469ZM14.2251 39.8925V44.7471H9.37036V39.8925H14.2251Z" fill="black"/>
<path d="M38.3145 42.2611H31.6853C31.1189 42.2611 30.6599 42.7202 30.6599 43.2865V47.706C30.6599 48.2722 31.1189 48.7313 31.6853 48.7313H38.3145C38.881 48.7313 39.3399 48.2722 39.3399 47.706V43.2865C39.3399 42.7202 38.881 42.2611 38.3145 42.2611ZM37.2891 46.6806H32.7107V44.3119H37.2891V46.6806Z" fill="black"/>
<path d="M40.4448 29.3375C40.4448 26.3353 38.0023 23.8927 35 23.8927C31.9976 23.8927 29.5552 26.3353 29.5552 29.3375C29.5552 32.3397 31.9976 34.7825 35 34.7825C38.0023 34.7825 40.4448 32.3398 40.4448 29.3375ZM31.606 29.3375C31.606 27.4661 33.1286 25.9435 35 25.9435C36.8714 25.9435 38.394 27.4661 38.394 29.3375C38.394 31.2089 36.8714 32.7317 35 32.7317C33.1286 32.7317 31.606 31.209 31.606 29.3375Z" fill="black"/>
<path d="M68.9746 59.6627H67.2379V37.1875C67.2379 36.6212 66.7789 36.1621 66.2125 36.1621C65.6461 36.1621 65.1871 36.6212 65.1871 37.1875V59.6627H43.7594V38.8671C43.7594 38.3008 43.3005 37.8417 42.734 37.8417H27.266C26.6995 37.8417 26.2406 38.3008 26.2406 38.8671V59.6627H4.81291V56.9442C4.81291 56.3779 4.35395 55.9188 3.78752 55.9188C3.22109 55.9188 2.76213 56.3779 2.76213 56.9442V59.6627H1.02539C0.458965 59.6627 0 60.1218 0 60.6881V65.3838C0 65.9501 0.458965 66.4092 1.02539 66.4092H68.9746C69.541 66.4092 70 65.9501 70 65.3838V60.6881C70 60.1218 69.541 59.6627 68.9746 59.6627ZM28.2913 52.184H29.7521C30.3185 52.184 30.7774 51.7249 30.7774 51.1586C30.7774 50.5924 30.3185 50.1333 29.7521 50.1333H28.2913V39.8925H41.7088V59.6627H28.2913V52.184ZM67.9492 64.3584H2.05078V61.7135H67.9492V64.3584Z" fill="black"/>
</g>
<defs>
<clipPath id="clip0">
<rect width="70" height="70" fill="white"/>
</clipPath>
</defs>
</svg>
